PathFileType	4	(X/Y/Z)	C:/Users/opensim2020/Desktop/walking_exp_matlab/subject02_walking06_straight_04.trc																																																																																																																									
DataRate	CameraRate	NumFrames	NumMarkers	Units	OrigDataRate	OrigDataStartFrame	OrigNumFrames																																																																																																																					
100	100	7	41	mm	100	2817	216																																																																																																																					
Frame#	Time	LFHD			RFHD			LBHD			RBHD			C7			T10			CLAV			STRN			RBAK			LSHO			LUPA			LELB			LFRM			LWRA			LWRB			LFIN			RSHO			RUPA			RELB			RFRM			RWRA			RWRB			RFIN			LASI			RASI			LPSI			RPSI			LTHI			LKNE			LTIB			LANK			LHEE			LTOE			RTHI			RKNE			RTIB			RANK			RHEE			RTOE			*39			*40		
		X1	Y1	Z1	X2	Y2	Z2	X3	Y3	Z3	X4	Y4	Z4	X5	Y5	Z5	X6	Y6	Z6	X7	Y7	Z7	X8	Y8	Z8	X9	Y9	Z9	X10	Y10	Z10	X11	Y11	Z11	X12	Y12	Z12	X13	Y13	Z13	X14	Y14	Z14	X15	Y15	Z15	X16	Y16	Z16	X17	Y17	Z17	X18	Y18	Z18	X19	Y19	Z19	X20	Y20	Z20	X21	Y21	Z21	X22	Y22	Z22	X23	Y23	Z23	X24	Y24	Z24	X25	Y25	Z25	X26	Y26	Z26	X27	Y27	Z27	X28	Y28	Z28	X29	Y29	Z29	X30	Y30	Z30	X31	Y31	Z31	X32	Y32	Z32	X33	Y33	Z33	X34	Y34	Z34	X35	Y35	Z35	X36	Y36	Z36	X37	Y37	Z37	X38	Y38	Z38	X39	Y39	Z39	X40	Y40	Z40	X41	Y41	Z41
																																																																																																																												
163	1.62	842.51788	1725.12146	1005.30164	844.87231	1708.97485	1147.69751	704.99963	1664.18542	1002.54926	694.67761	1647.43103	1144.24963	640.62738	1524.19031	1083.30066	583.10669	1247.18408	1096.78259	778.59045	1452.35291	1063.15564	829.83685	1282.04297	1080.77698	584.43298	1352.62036	1160.92639	691.14136	1489.40344	901.27594	619.2215	1303.8429	827.4519	576.78772	1170.36597	819.24292	540.0661	1045.8053	798.89319	556.40887	905.83624	807.93719	506.8299	926.53601	789.65826	502.62152	860.58356	779.33551	731.02771	1499.83496	1262.0896	748.13678	1314.07104	1361.93518	804.17859	1175.87939	1383.82007	876.2901	1078.09644	1391.63965	962.68494	979.07104	1358.72083	928.62366	958.49988	1398.22339	988.32166	918.24213	1393.09924	821.81964	987.12988	961.79431	812.04773	970.35754	1218.78638	608.53412	1027.74817	1035.80151	599.03754	1027.84546	1149.76465	805.32428	682.84381	883.98499	838.04968	483.69592	913.76794	840.4762	289.65683	916.72418	922.94025	77.90934	927.30579	913.51038	44.09248	987.16998	1071.24158	78.65012	878.00586	702.00024	664.51495	1260.96252	669.16339	457.11411	1211.06995	601.19177	280.923	1210.3302	557.7962	93.1094	1164.02258	518.43628	42.32643	1106.9668	705.05902	32.67858	1181.60291	750.16949	1801.69592	1096.06165	NaN	NaN	NaN
164	1.63	851.99438	1723.65234	1003.70178	854.25037	1707.53406	1145.95935	713.78101	1662.87927	1001.17169	703.84412	1646.77686	1143.16492	649.54205	1522.98523	1082.11243	591.70129	1246.09351	1095.62402	787.31476	1451.06396	1061.97852	838.57635	1280.85522	1079.74084	592.98474	1351.51331	1159.74622	699.74066	1488.27881	900.21454	626.54291	1303.57092	826.85583	582.87738	1170.34302	819.01227	544.43365	1046.04614	799.20776	559.48541	906.09906	807.24164	509.97809	927.38495	789.88257	504.0112	861.70068	779.44989	739.78015	1498.57251	1261.08032	758.00342	1312.79541	1360.39575	815.24872	1175.18835	1382.4895	888.20392	1077.81836	1389.97852	975.57574	980.12531	1357.13721	941.70508	958.95868	1396.57593	1001.79285	919.3385	1391.43274	830.93335	985.65521	961.63019	820.18225	969.0332	1218.65417	617.41632	1026.53333	1034.68823	607.53302	1026.70313	1148.5885	814.26068	681.28546	883.69287	848.37946	482.36487	914.67279	855.60248	288.57788	916.19971	943.27081	78.99783	926.45203	934.22626	44.97969	986.21558	1092.42554	81.56617	878.69385	707.80011	663.9057	1260.55383	673.41095	456.65823	1210.75232	603.52826	281.19507	1210.0636	558.3927	93.78283	1163.80029	518.65991	43.036	1106.51782	705.16528	32.65789	1181.7002	759.85425	1800.54065	1094.38953	NaN	NaN	NaN
165	1.64	861.3656	1722.01001	1002.17218	863.69751	1706.35071	1144.46021	722.79193	1661.47803	1000.01056	713.10468	1645.7478	1141.72717	658.29602	1522.00696	1081.18909	600.39716	1244.94714	1094.48975	795.88641	1449.6803	1060.85657	847.06934	1279.51489	1078.61694	601.9137	1350.18677	1157.70117	708.18573	1487.1676	899.20752	634.05182	1302.96692	826.47266	588.71521	1170.06958	819.23102	549.08948	1046.12024	799.24261	562.57996	906.08069	806.55573	513.69415	928.25116	789.96545	506.25876	862.39008	779.49811	748.59564	1497.27417	1259.99072	767.73755	1311.43884	1358.97302	826.08044	1174.53638	1381.50684	899.94232	1077.7771	1388.41089	987.987	980.71777	1355.3429	954.45386	959.24976	1394.69446	1014.83234	920.23602	1389.58679	840.12177	984.24402	961.47479	828.49493	967.59076	1218.38843	626.34998	1025.34314	1033.448	616.20502	1025.64417	1147.45007	824.02551	679.86542	883.49512	858.72827	480.98248	915.60022	869.95441	287.68268	915.9151	962.13452	79.9918	925.62006	953.34546	45.99663	985.42981	1111.86511	84.04744	879.08026	713.85345	663.2677	1260.08313	677.83612	456.23001	1210.30017	605.93201	281.51926	1209.74707	558.99249	94.54708	1163.54358	519.38263	43.83613	1105.97339	705.24115	32.59911	1181.8175	769.40515	1799.51099	1092.8396	NaN	NaN	NaN
166	1.65	870.26837	1720.32532	1000.57391	872.96539	1704.80151	1142.44263	731.95813	1660.45667	998.85712	722.1499	1644.88232	1140.45178	667.12415	1520.8988	1080.11694	609.1156	1243.80286	1093.68286	804.83588	1448.49902	1059.50586	855.93689	1278.40356	1077.33923	610.44006	1348.97131	1156.91968	716.67664	1486.02197	898.09302	640.89331	1302.1615	825.93469	595.271	1169.745	819.1441	554.66302	1046.48535	799.28625	566.49854	905.96558	805.83624	516.89288	928.57629	789.81982	508.87668	862.88977	779.4765	757.47589	1495.87268	1258.87219	777.15277	1309.94165	1357.24255	836.72894	1173.38989	1379.52612	911.20435	1077.36389	1386.6947	1000.01801	981.06781	1353.42273	966.68817	959.27991	1392.75586	1027.4436	920.92456	1387.67029	849.03955	982.62537	961.10748	836.99487	966.0943	1217.92834	635.18408	1024.25049	1032.16736	625.07349	1024.63989	1146.29358	833.23859	678.16156	883.4538	868.99536	479.65448	916.44141	883.54163	286.85406	915.98065	979.31287	80.80403	925.2243	970.74231	46.95264	984.34082	1129.41309	86.1793	879.43195	720.13007	662.64337	1259.50549	682.47107	455.81265	1210.01624	608.4201	281.94113	1209.40356	559.54651	95.31438	1163.31116	519.37823	44.95166	1105.73157	705.5058	32.6507	1181.94861	778.95245	1798.28101	1091.10168	NaN	NaN	NaN
167	1.66	878.95728	1718.8103	998.17072	882.47754	1703.67493	1140.90393	740.92236	1659.44849	997.03705	731.48706	1643.7312	1138.87671	676.18634	1519.60901	1078.63489	618.01904	1242.54761	1092.2876	813.42462	1447.14111	1058.17297	864.53436	1277.06213	1076.01526	619.24451	1347.73474	1155.59045	725.21851	1484.92761	896.89093	648.66876	1301.22546	825.24677	602.71423	1169.17371	818.89435	560.31287	1046.5968	798.87469	571.17938	905.87726	805.1543	521.4176	928.99182	789.54999	512.64801	863.35309	779.43536	766.39447	1494.57056	1257.6665	786.65179	1308.5105	1355.78345	847.10071	1172.34558	1377.83496	922.17023	1076.8158	1384.79749	1011.66614	981.23004	1351.42529	978.46356	959.10846	1390.68579	1039.54358	921.35345	1385.74756	858.40643	981.38104	960.64838	845.88446	964.69409	1217.04529	644.12488	1023.13092	1030.84509	634.06982	1023.61798	1145.04944	843.75867	676.63776	883.6601	879.35358	478.45944	917.03296	896.19019	285.99744	916.93878	994.73389	81.16988	925.2464	986.14227	46.72311	984.81116	1144.92163	87.83857	879.72284	726.69464	662.07678	1258.83533	687.24432	455.46445	1209.73853	611.06104	282.47427	1209.10999	560.29895	96.2612	1163.04248	519.96533	45.99616	1105.16016	705.60327	32.64477	1182.08215	788.39276	1797.08447	1089.2948	NaN	NaN	NaN
168	1.67	888.25757	1717.48132	996.34839	891.84308	1702.36829	1138.97131	749.40009	1658.30176	995.64899	740.65228	1642.57935	1137.40564	684.99896	1518.56189	1077.66443	626.91779	1241.36328	1091.19434	822.40234	1445.99646	1056.67102	873.38721	1275.82886	1074.54382	627.97974	1346.57581	1154.39783	733.69757	1483.83142	895.65851	656.51556	1300.46729	824.55341	609.70087	1168.62012	818.52466	566.48199	1046.5708	798.24475	576.05878	905.42944	804.27374	527.07428	929.27051	789.04138	517.5799	863.49573	779.14594	775.27271	1493.35425	1256.35547	795.88086	1306.92358	1353.86218	857.12109	1171.1178	1375.87183	932.92432	1075.91406	1382.65845	1023.15417	981.27588	1349.31042	989.7204	958.61432	1388.58301	1051.1344	921.6825	1383.75891	867.7196	980.07507	959.85907	854.73132	963.48022	1216.01855	653.12366	1022.22241	1029.63745	643.13812	1022.65759	1143.83191	854.09161	675.30011	883.64459	890.03564	477.36157	917.29071	907.96008	285.0412	917.71967	1008.24017	81.02594	926.02277	999.96619	46.40456	985.32416	1158.51953	88.71735	880.07776	733.42603	661.54968	1258.15308	692.28888	455.19003	1209.4137	613.8576	283.0448	1208.82031	561.01782	97.38409	1162.88428	520.43799	47.24575	1104.7489	705.71454	32.60029	1182.33972	797.81909	1795.90845	1087.43872	-2845.84155	1033.92737	3356.81738
169	1.68	897.29437	1715.91553	994.29462	901.25122	1701.1405	1136.9093	758.52563	1656.97546	993.95135	749.93854	1641.76587	1135.94592	694.00665	1517.23804	1076.13525	635.93036	1240.12988	1089.99976	831.14172	1444.67102	1055.25085	882.45282	1274.73364	1073.06018	636.98706	1345.24463	1153.09485	742.29462	1482.604	894.39532	664.67462	1299.3429	823.68066	617.82538	1167.90637	817.9823	573.26923	1045.97327	797.89471	581.69751	904.91876	803.38794	532.6059	929.1615	788.4295	522.6059	863.47021	778.78632	784.30499	1492.05396	1255.03027	805.05182	1305.34656	1352.10938	867.05951	1169.87463	1374.04468	943.20148	1075.15381	1380.63953	1034.0105	980.97498	1347.16394	1000.61151	957.9873	1386.23938	1062.29736	921.55682	1381.5575	876.44824	978.3916	959.0495	863.68945	962.02612	1214.97534	662.32349	1020.80768	1028.13586	652.27759	1021.70447	1142.54919	865.27881	674.16327	883.46295	900.79767	476.36667	917.2066	919.11328	284.07095	918.41443	1019.4317	80.06046	927.39038	1012.19153	45.83969	987.22638	1170.15588	88.3289	880.76715	740.36743	660.98175	1257.3739	697.58185	454.91003	1209.14795	616.8681	283.65479	1208.50562	561.78455	98.53442	1162.79688	520.62756	48.96151	1104.69702	705.8576	32.71977	1182.35938	807.29089	1794.55969	1085.55737	NaN	NaN	NaN
